<svg width="46" height="46" viewBox="0 0 46 46" fill="none" xmlns="http://www.w3.org/2000/svg">
<g id="Group 24">
<path id="Vector" d="M24.0618 10.2229C23.7761 9.94839 23.3953 9.79504 22.9991 9.79504C22.603 9.79504 22.2222 9.94839 21.9365 10.2229L13.7899 18.0629C12.7948 19.0197 13.4725 20.7002 14.8525 20.7002H19.5491C19.6508 20.7002 19.7483 20.7406 19.8202 20.8125C19.8921 20.8844 19.9325 20.9819 19.9325 21.0835V36.0335C19.9325 36.4402 20.094 36.8302 20.3816 37.1178C20.6691 37.4053 21.0592 37.5669 21.4658 37.5669H24.5325C24.9391 37.5669 25.3292 37.4053 25.6167 37.1178C25.9043 36.8302 26.0658 36.4402 26.0658 36.0335V21.0835C26.0658 20.9819 26.1062 20.8844 26.1781 20.8125C26.25 20.7406 26.3475 20.7002 26.4491 20.7002H31.1457C32.5257 20.7002 33.2035 19.0197 32.2083 18.0629L24.0618 10.2229Z" fill="#F4661B"/>
<path id="Vector_2" d="M7.66667 0C6.65987 0 5.66292 0.198304 4.73276 0.58359C3.8026 0.968876 2.95743 1.5336 2.24551 2.24551C0.807736 3.68329 0 5.63334 0 7.66667V38.3333C0 40.3667 0.807736 42.3167 2.24551 43.7545C2.95743 44.4664 3.8026 45.0311 4.73276 45.4164C5.66292 45.8017 6.65987 46 7.66667 46H38.3333C40.3667 46 42.3167 45.1923 43.7545 43.7545C45.1923 42.3167 46 40.3667 46 38.3333V7.66667C46 6.65987 45.8017 5.66292 45.4164 4.73276C45.0311 3.8026 44.4664 2.95743 43.7545 2.24551C43.0426 1.5336 42.1974 0.968876 41.2672 0.58359C40.3371 0.198304 39.3401 0 38.3333 0H7.66667ZM3.06667 7.66667C3.06667 6.44667 3.55131 5.27664 4.41398 4.41398C5.27664 3.55131 6.44667 3.06667 7.66667 3.06667H38.3333C39.5533 3.06667 40.7234 3.55131 41.586 4.41398C42.4487 5.27664 42.9333 6.44667 42.9333 7.66667V38.3333C42.9333 39.5533 42.4487 40.7234 41.586 41.586C40.7234 42.4487 39.5533 42.9333 38.3333 42.9333H7.66667C6.44667 42.9333 5.27664 42.4487 4.41398 41.586C3.55131 40.7234 3.06667 39.5533 3.06667 38.3333V7.66667Z" fill="#F4661B"/>
</g>
</svg>
