<svg width="27" height="27" viewBox="0 0 27 27" fill="none" xmlns="http://www.w3.org/2000/svg">
<ellipse cx="13.4675" cy="13.3214" rx="13.0271" ry="13.1313" fill="#F4661B"/>
<path d="M19.0835 9.67232C19.0835 8.05383 18.4546 6.58888 17.4394 5.52943C16.423 4.4688 15.0193 3.8125 13.4684 3.8125C11.9175 3.8125 10.5137 4.4688 9.49736 5.52943C8.48214 6.58888 7.85325 8.05383 7.85325 9.67232C7.85325 11.2908 8.48214 12.7558 9.49736 13.8152C10.5137 14.8758 11.9175 15.5321 13.4684 15.5321C15.0193 15.5321 16.423 14.8758 17.4394 13.8152C18.4546 12.7558 19.0835 11.2908 19.0835 9.67232ZM6.73022 21.3919C6.73022 22.5639 9.25703 23.7359 13.4684 23.7359C17.4192 23.7359 20.2065 22.5639 20.2065 21.3919C20.2065 19.048 17.5629 16.7041 13.4684 16.7041C9.25703 16.7041 6.73022 19.048 6.73022 21.3919Z" fill="white"/>
</svg>
