<svg width="201" height="53" viewBox="0 0 201 53" fill="none" xmlns="http://www.w3.org/2000/svg">
<path d="M95.8332 26.465C98.9366 26.465 101.395 27.3403 103.208 29.0882C105.021 30.8371 105.927 33.3248 105.927 36.5505V39.479H91.4245C91.48 41.1865 91.9939 42.5287 92.9699 43.5046C93.9449 44.4804 95.2984 44.9688 97.0283 44.9688C98.4563 44.9688 99.7688 44.827 100.963 44.5415C102.157 44.256 103.387 43.8161 104.65 43.219V47.8964C103.523 48.4387 102.357 48.8391 101.148 49.0958C99.9389 49.3535 98.47 49.4828 96.7391 49.4828C94.4861 49.4828 92.4951 49.0698 90.7651 48.242C89.0351 47.4152 87.6753 46.1673 86.6866 44.5011C85.6979 42.8339 85.2031 40.7116 85.2031 38.1359C85.2031 35.5611 85.6488 33.4047 86.542 31.6702C87.4343 29.9348 88.6776 28.634 90.2712 27.7658C91.8629 26.8986 93.7175 26.465 95.8332 26.465ZM95.8741 30.776C94.6644 30.776 93.6757 31.1567 92.9071 31.9153C92.1376 32.6748 91.6847 33.8536 91.5473 35.4534H100.158C100.131 34.1256 99.767 33.0133 99.0657 32.1182C98.3663 31.224 97.3021 30.776 95.8741 30.776Z" fill="#F4661B"/>
<path d="M115.571 49.2044L107 27H113.427L117.754 39.6477C118 40.4072 118.192 41.1937 118.33 42.007C118.468 42.8195 118.564 43.5521 118.619 44.203H118.783C118.866 42.7387 119.168 41.2206 119.69 39.6477L124.016 27H130.444L121.873 49.2044H115.571Z" fill="#F4661B"/>
<path d="M136.211 18.1696C137.118 18.1696 137.9 18.3796 138.56 18.7998C139.219 19.2199 139.548 19.9992 139.548 21.1376C139.548 22.249 139.219 23.0229 138.56 23.4556C137.9 23.8892 137.118 24.1065 136.211 24.1065C135.277 24.1065 134.487 23.8901 133.843 23.4556C133.197 23.0229 132.875 22.249 132.875 21.1376C132.875 19.9983 133.197 19.219 133.843 18.7998C134.487 18.3796 135.276 18.1696 136.211 18.1696ZM139.26 26.8716V49.076H133.121V26.8716H139.26Z" fill="#F4661B"/>
<path d="M154.75 26.465C157.854 26.465 160.312 27.3403 162.125 29.0882C163.938 30.8371 164.844 33.3248 164.844 36.5505V39.479H150.341C150.396 41.1865 150.911 42.5287 151.886 43.5046C152.86 44.4804 154.214 44.9688 155.944 44.9688C157.372 44.9688 158.685 44.827 159.879 44.5415C161.073 44.256 162.303 43.8161 163.567 43.219V47.8964C162.44 48.4387 161.273 48.8391 160.065 49.0958C158.856 49.3535 157.387 49.4828 155.655 49.4828C153.402 49.4828 151.412 49.0698 149.681 48.242C147.951 47.4152 146.592 46.1673 145.603 44.5011C144.614 42.8339 144.119 40.7116 144.119 38.1359C144.119 35.5611 144.566 33.4047 145.459 31.6702C146.35 29.9348 147.595 28.634 149.188 27.7658C150.781 26.8986 152.634 26.465 154.75 26.465ZM154.791 30.776C153.582 30.776 152.594 31.1567 151.825 31.9153C151.055 32.6748 150.602 33.8536 150.465 35.4534H159.076C159.049 34.1256 158.685 33.0133 157.985 32.1182C157.285 31.224 156.22 30.776 154.791 30.776Z" fill="#F4661B"/>
<path d="M187.302 49.077L185.572 41.3095C185.462 40.849 185.305 40.1648 185.098 39.2563C184.892 38.3478 184.665 37.3719 184.418 36.3278C184.171 35.2846 183.937 34.3222 183.717 33.4406C183.497 32.5599 183.346 31.9153 183.264 31.5086H183.099C183.016 31.9153 182.872 32.5599 182.666 33.4406C182.459 34.3213 182.233 35.2846 181.986 36.3278C181.739 37.3719 181.505 38.3549 181.285 39.2761C181.065 40.1981 180.9 40.9028 180.79 41.3903L178.978 49.077H172.386L166 26.8726H172.098L174.694 36.7147C174.885 37.4195 175.057 38.2392 175.208 39.1746C175.359 40.1101 175.497 41.0186 175.62 41.8993C175.744 42.78 175.847 43.4794 175.93 43.9938H176.094C176.122 43.6141 176.177 43.1059 176.26 42.4685C176.343 41.832 176.445 41.1748 176.569 40.497C176.693 39.8192 176.802 39.2087 176.898 38.6665C176.994 38.1242 177.069 37.7454 177.125 37.5272L179.885 26.8726H186.642L189.279 37.5272C189.362 37.9079 189.486 38.5183 189.649 39.3578C189.815 40.199 189.951 41.0527 190.062 41.92C190.171 42.7881 190.24 43.4794 190.268 43.9947H190.434C190.488 43.5333 190.584 42.8626 190.721 41.9819C190.858 41.1012 191.016 40.1783 191.195 39.2159C191.373 38.2544 191.558 37.4204 191.751 36.7156L194.428 26.8734H200.444L193.975 49.0779L187.302 49.077Z" fill="#F4661B"/>
<path d="M51.8687 50.6109L34.3845 15.4943C34.3666 15.533 31.1345 23.0297 26.1602 30.3209C28.1999 33.3289 30.5334 36.3 33.0569 38.6985C41.7229 46.9229 46.0908 49.3359 47.851 50.3287C49.6122 51.3205 50.9514 51.6406 51.6913 51.692C52.3426 51.7398 52.1679 51.4287 51.8687 50.6109Z" fill="#32A0A2"/>
<path d="M0.297649 50.6038C-0.00333968 51.4189 -0.181599 51.7309 0.475918 51.6849C1.22033 51.6299 2.56582 51.3134 4.3386 50.3197C6.11139 49.326 10.5071 46.9158 19.225 38.6896C21.7664 36.2929 24.1098 33.3254 26.1603 30.321C21.194 22.9965 17.9619 15.4556 17.9619 15.4556L0.297649 50.6038Z" fill="#32A0A2"/>
<path d="M27.4386 1.53703C27.4386 1.53703 27.143 1.04199 26.9818 0.80124C26.9003 0.681314 26.8179 0.570399 26.7301 0.473918C26.6898 0.431538 26.6504 0.390963 26.61 0.3576C26.5957 0.34678 26.5823 0.336858 26.5679 0.326038C26.5124 0.285461 26.4542 0.246682 26.3924 0.22414C26.3906 0.222336 26.3888 0.222351 26.3888 0.222351C26.3234 0.196202 26.2535 0.183566 26.1792 0.181763C26.1191 0.183566 26.0636 0.196195 26.0072 0.209721C25.9857 0.218738 25.9615 0.224155 25.9391 0.234074C25.9248 0.239484 25.9113 0.250312 25.897 0.258427C25.7617 0.330563 25.6336 0.44686 25.5181 0.585722C25.5127 0.591132 25.5064 0.600158 25.5002 0.60647C25.4401 0.678606 25.3846 0.752545 25.3326 0.831895C25.2466 0.957231 25.1006 1.22955 24.9868 1.44686C24.9313 1.56137 24.8937 1.64433 24.8937 1.64433L17.9629 15.4547C17.9629 15.4547 21.1949 22.9956 26.1612 30.3201C31.1356 23.029 34.3677 15.5323 34.3856 15.4935L27.4386 1.53703Z" fill="#209989"/>
<path d="M65.624 2.00793C71.9341 2.00793 76.5906 3.19014 79.5952 5.55267C82.5998 7.91885 84.1013 11.5074 84.1013 16.3237C84.1013 18.5082 83.7014 20.4171 82.9033 22.042C82.1035 23.6715 81.0436 25.0554 79.7262 26.1929C78.4052 27.3303 76.9905 28.256 75.4784 29.88L85.2055 43.5878L78.2026 49.2184L67.1803 31.4419H61.9275V52.513H52.1367V2.00793H65.624ZM64.9082 10.3015H61.9275V23.2141H65.1029C68.3464 23.2141 70.6689 22.6564 72.0757 21.5417C73.4798 20.4271 74.1831 18.7766 74.1831 16.5903C74.1831 14.3154 73.4258 12.6996 71.9111 11.7392C70.3981 10.7816 68.0641 10.3015 64.9082 10.3015Z" fill="#F4661B"/>
<path d="M136.81 24.5253C125.908 24.5253 117.228 16.5102 116.864 16.169L116.305 15.6444L116.864 15.1208C117.227 14.7796 125.908 6.7627 136.81 6.7627C147.713 6.7627 156.392 14.7787 156.756 15.1208L157.315 15.6444L156.756 16.169C156.392 16.5102 147.713 24.5253 136.81 24.5253Z" fill="white"/>
<path d="M136.81 7.47688C147.562 7.47688 156.276 15.6444 156.276 15.6444C156.276 15.6444 147.562 23.8102 136.81 23.8102C126.06 23.8102 117.345 15.6444 117.345 15.6444C117.345 15.6444 126.061 7.47688 136.81 7.47688ZM136.81 6.04846C125.635 6.04846 116.757 14.2478 116.384 14.5972L115.266 15.6453L116.384 16.6935C116.757 17.0429 125.635 25.2404 136.81 25.2404C147.987 25.2404 156.864 17.0429 157.237 16.6935L158.355 15.6453L157.237 14.5972C156.864 14.2478 147.988 6.04846 136.81 6.04846Z" fill="#F4661B"/>
<path d="M136.721 23.2076C140.893 23.2076 144.275 19.7881 144.275 15.57C144.275 11.3519 140.893 7.9325 136.721 7.9325C132.548 7.9325 129.166 11.3519 129.166 15.57C129.166 19.7881 132.548 23.2076 136.721 23.2076Z" fill="#32A0A2"/>
<path d="M125.538 16.9893C126.557 16.9893 127.383 15.8768 127.383 14.5045C127.383 13.1322 126.557 12.0198 125.538 12.0198C124.519 12.0198 123.693 13.1322 123.693 14.5045C123.693 15.8768 124.519 16.9893 125.538 16.9893Z" fill="white"/>
</svg>
