<svg width="27" height="27" viewBox="0 0 27 27" fill="none" xmlns="http://www.w3.org/2000/svg">
<path d="M11.1474 20.9516C9.44085 20.9531 7.76024 20.5332 6.25464 19.7291C4.74903 18.9249 3.46494 17.7615 2.5162 16.3418C1.56746 14.9221 0.983394 13.2901 0.815779 11.5905C0.648163 9.89081 0.902178 8.17603 1.5553 6.59814C2.20843 5.02026 3.24049 3.62802 4.55997 2.54486C5.87946 1.4617 7.44561 0.721094 9.11958 0.388691C10.7935 0.0562876 12.5236 0.142363 14.1564 0.639283C15.7891 1.1362 17.2742 2.02862 18.4798 3.2374C19.9313 4.68813 20.92 6.53724 21.3208 8.55063C21.7217 10.564 21.5165 12.6512 20.7315 14.5478C19.9464 16.4445 18.6166 18.0654 16.9106 19.2054C15.2045 20.3453 13.1988 20.953 11.1474 20.9516Z" fill="white"/>
<path d="M25.313 26.4527C25.1149 26.4529 24.9188 26.4139 24.7358 26.3379C24.5529 26.262 24.3867 26.1506 24.247 26.0101L16.3256 18.0862C16.1853 17.9462 16.0741 17.7799 15.9981 17.5968C15.9221 17.4138 15.883 17.2175 15.8828 17.0193C15.8827 16.8211 15.9215 16.6249 15.9972 16.4417C16.0729 16.2585 16.1839 16.0921 16.3239 15.9518C16.6066 15.6685 16.9902 15.5092 17.3904 15.5089C17.5885 15.5088 17.7848 15.5476 17.9679 15.6233C18.151 15.699 18.3174 15.8101 18.4576 15.9501L26.3791 23.8774C26.5898 24.0884 26.7332 24.3572 26.7913 24.6497C26.8494 24.9423 26.8196 25.2455 26.7055 25.521C26.5914 25.7966 26.3983 26.0322 26.1504 26.198C25.9026 26.3638 25.6112 26.4525 25.313 26.4527Z" fill="white"/>
</svg>
