<svg width="46" height="47" viewBox="0 0 46 47" fill="none" xmlns="http://www.w3.org/2000/svg">
<path d="M24.0623 10.3912C23.7767 10.1122 23.3959 9.9563 22.9997 9.9563C22.6036 9.9563 22.2228 10.1122 21.9371 10.3912L13.7905 18.3603C12.7954 19.3329 13.4731 21.0411 14.8531 21.0411H19.5497C19.6514 21.0411 19.7489 21.0822 19.8208 21.1552C19.8927 21.2283 19.9331 21.3274 19.9331 21.4308V36.6271C19.9331 37.0404 20.0946 37.4369 20.3822 37.7292C20.6697 38.0215 21.0597 38.1857 21.4664 38.1857H24.5331C24.9397 38.1857 25.3298 38.0215 25.6173 37.7292C25.9049 37.4369 26.0664 37.0404 26.0664 36.6271V21.4308C26.0664 21.3274 26.1068 21.2283 26.1787 21.1552C26.2506 21.0822 26.3481 21.0411 26.4497 21.0411H31.1463C32.5263 21.0411 33.2041 19.3329 32.2089 18.3603L24.0623 10.3912Z" fill="#F4661B"/>
<path d="M7.66667 0C6.65987 0 5.66292 0.201571 4.73276 0.593205C3.8026 0.984839 2.95743 1.55886 2.24551 2.28251C0.807736 3.74398 0 5.72615 0 7.79297V38.9649C0 41.0317 0.807736 43.0139 2.24551 44.4753C2.95743 45.199 3.8026 45.773 4.73276 46.1646C5.66292 46.5563 6.65987 46.7578 7.66667 46.7578H38.3333C40.3667 46.7578 42.3167 45.9368 43.7545 44.4753C45.1923 43.0139 46 41.0317 46 38.9649V7.79297C46 6.76959 45.8017 5.75622 45.4164 4.81073C45.0311 3.86524 44.4664 3.00615 43.7545 2.28251C43.0426 1.55886 42.1974 0.984839 41.2672 0.593205C40.3371 0.201571 39.3401 0 38.3333 0H7.66667ZM3.06667 7.79297C3.06667 6.55288 3.55131 5.36358 4.41398 4.4867C5.27664 3.60982 6.44667 3.11719 7.66667 3.11719H38.3333C39.5533 3.11719 40.7234 3.60982 41.586 4.4867C42.4487 5.36358 42.9333 6.55288 42.9333 7.79297V38.9649C42.9333 40.205 42.4487 41.3943 41.586 42.2712C40.7234 43.148 39.5533 43.6407 38.3333 43.6407H7.66667C6.44667 43.6407 5.27664 43.148 4.41398 42.2712C3.55131 41.3943 3.06667 40.205 3.06667 38.9649V7.79297Z" fill="#F4661B"/>
</svg>
